<?xml version="1.0" encoding="utf-8"?>
<!-- Generator: Adobe Illustrator 16.0.4, SVG Export Plug-In . SVG Version: 6.00 Build 0)  -->
<!DOCTYPE svg PUBLIC "-//W3C//DTD SVG 1.1//EN" "http://www.w3.org/Graphics/SVG/1.1/DTD/svg11.dtd">
<svg version="1.1" id="Layer_1" xmlns="http://www.w3.org/2000/svg" xmlns:xlink="http://www.w3.org/1999/xlink" x="0px" y="0px"
	 width="45px" height="45px" viewBox="0.052 -0.179 45 45" enable-background="new 0.052 -0.179 45 45" xml:space="preserve">
<g id="medium-logo">
	<path d="M38.671,12.937h-1.33c-0.492,0-1.191,0.712-1.191,1.168v16.52c0,0.469,0.672,1.075,1.209,1.077h1.328v3.923H26.626v-3.923
		h2.521V14.337h-0.123l-5.888,21.288H18.58l-5.811-21.288h-0.147v17.365h2.521v3.923H5.062v-3.923h1.291
		c0.532,0,1.23-0.622,1.23-1.077v-16.52c0-0.457-0.699-1.168-1.23-1.168H5.062V9.016h12.608l4.14,15.406h0.114l4.177-15.406h12.57
		V12.937z"/>
</g>
</svg>
