<?xml version="1.0" encoding="utf-8"?>
<!-- Generator: Adobe Illustrator 16.0.4, SVG Export Plug-In . SVG Version: 6.00 Build 0)  -->
<!DOCTYPE svg PUBLIC "-//W3C//DTD SVG 1.1//EN" "http://www.w3.org/Graphics/SVG/1.1/DTD/svg11.dtd">
<svg version="1.1" id="Layer_1" xmlns="http://www.w3.org/2000/svg" xmlns:xlink="http://www.w3.org/1999/xlink" x="0px" y="0px"
	 width="45px" height="45px" viewBox="0.25 0.25 45 45" enable-background="new 0.25 0.25 45 45" xml:space="preserve">
<g id="twitter-logo">
	<g id="layer1" transform="translate(-282.32053,-396.30734)">
		<path id="path5" fill="#000000" d="M322.362,408.256c-1.24,0.551-2.576,0.923-3.977,1.091c1.429-0.857,2.528-2.214,3.043-3.831
			c-1.337,0.794-2.819,1.371-4.395,1.681c-1.264-1.346-3.062-2.187-5.054-2.187c-3.823,0-6.923,3.1-6.923,6.923
			c0,0.543,0.061,1.071,0.179,1.578c-5.753-0.288-10.856-3.045-14.27-7.233c-0.596,1.022-0.937,2.212-0.937,3.479
			c0,2.402,1.221,4.521,3.08,5.763c-1.135-0.036-2.202-0.348-3.136-0.867c0,0.029,0,0.058,0,0.088c0,3.354,2.387,6.152,5.554,6.789
			c-0.581,0.159-1.192,0.243-1.824,0.243c-0.447,0-0.879-0.043-1.303-0.125c0.88,2.75,3.438,4.752,6.469,4.808
			c-2.371,1.856-5.355,2.964-8.6,2.964c-0.559,0-1.11-0.033-1.651-0.097c3.063,1.965,6.704,3.11,10.613,3.11
			c12.735,0,19.697-10.549,19.697-19.698c0-0.3-0.007-0.598-0.019-0.896C320.261,410.863,321.434,409.644,322.362,408.256
			L322.362,408.256z"/>
	</g>
</g>
</svg>
